<?xml version="1.0" encoding="utf-8"?>
<!-- Generator: Adobe Illustrator 24.0.1, SVG Export Plug-In . SVG Version: 6.00 Build 0)  -->
<svg version="1.1" xmlns="http://www.w3.org/2000/svg" xmlns:xlink="http://www.w3.org/1999/xlink" x="0px" y="0px"
	 viewBox="0 0 1157.76 1080" style="enable-background:new 0 0 1157.76 1080;" xml:space="preserve">
<style type="text/css">
	.st0{fill:#FFEE73;stroke:#FF9A2F;stroke-width:7;stroke-miterlimit:10;}
	.st1{fill:#FCF6EB;}
	.st2{fill:#FFB32B;}
	.st3{fill:#FEDC78;}
	.st4{fill:#E2BF6A;}
	.st5{fill:#FE6D15;}
</style>
<g id="Capa_1">
	<circle class="st0" cx="575.43" cy="540.4" r="514.89"/>
</g>
<g id="Capa_5">
	<path class="st1" d="M947.62,532.16c0,232.03-173.51,400.68-372.16,400.68S203.29,772.03,203.29,540s174.75-389.8,373.4-389.8
		S947.62,300.13,947.62,532.16z"/>
</g>
<g id="Capa_2">
	<circle class="st2" cx="576.69" cy="540" r="373.4"/>
</g>
<g id="Capa_3">
	<path class="st3" d="M775.98,717.92V664.3c0,0-89.36,122.13-221.91,75.96c0,0-84.89-17.87-96.81-172.77
		c0,0,5.96-163.83,56.6-195.11c0,0,163.83-153.4,262.13,87.87l9.44,0.01V280.35h-12.1c0,0-4.54,47.63-52.16,29.48
		c0,0-124.86-74.84-263.91,4.54c0,0-142.32,81.9-130.22,255.28c0,0,13.1,187.49,193.54,224.78
		C520.57,794.43,716.89,830.92,775.98,717.92z"/>
	<path class="st4" d="M775.98,460.26c0,0-31.75-151.18-154.74-158.86c0,0-127.5-23.36-154.05,176.96l7.9-38.36l5.4-16.8l12.72-32.04
		l13.32-15.6l12.12-9.48l25.68-15.72l18.36-12.24l14.01-6.12l19.83-6.84l24.71-3.6l18.85,1.08l19.08,3.96l20.88,8.28l20.88,13.68
		l18,15.12l16.2,16.92l14.4,25.92l11.34,20.7L775.98,460.26z"/>
	<path class="st5" d="M775.98,460.26c0,0-58.3-159.58-147.86-146.62c0,0-150.19-14.43-161.63,168.47c0,0,16.27-94.31,49.03-108.35
		C515.52,373.76,671.39,218.08,775.98,460.26z"/>
	<path class="st4" d="M775.98,713.72v-17.04c0,0-212.1,222.58-436.62-69.79c0,0,11.64,63.31,91.92,123.79l59.4,30.6l79.92,13.68
		l91.44-3.24l74.52-34.92L775.98,713.72z"/>
	<path class="st5" d="M775.98,717.92v-11.16c0,0-53.46,79.2-145.62,81.9c0,0-186.07,29.07-280.6-134.23c0,0,39.77,116.06,170.8,140
		C520.57,794.43,716.75,832.4,775.98,717.92z"/>
	<path class="st1" d="M773.32,280.35c0,0-4.32,49.29-52.16,29.48c0,0-133.53-74.66-263.91,4.54c0,0-61.39,40.83-84.8,83.13
		c0,0,71.79-86.25,141.63-96.93c0,0,113.76-32.28,208.08,19.56c0,0,58.72,7.12,63.26-39.77H773.32z"/>
	<path class="st1" d="M775.98,664.3c0,0-84.01,116.18-221.91,75.96c0,0-51.35-20.22-72.07-70.06c0,0,4.72,54.8,85.84,81.68
		c0,0,107.15,37.44,208.14-76.8V664.3z"/>
</g>
</svg>
