<?xml version="1.0" encoding="utf-8"?>
<!-- Generator: Adobe Illustrator 24.0.1, SVG Export Plug-In . SVG Version: 6.00 Build 0)  -->
<svg version="1.1" xmlns="http://www.w3.org/2000/svg" xmlns:xlink="http://www.w3.org/1999/xlink" x="0px" y="0px"
	 viewBox="0 0 1157.76 1080" style="enable-background:new 0 0 1157.76 1080;" xml:space="preserve">
<style type="text/css">
	.st0{fill:#C3EDFC;}
	.st1{fill:#E6F6FA;}
	.st2{fill:#9AE1FA;}
	.st3{fill:#54CEFC;}
	.st4{fill:#00AEF0;}
	.st5{fill:none;stroke:#AEECFF;stroke-width:27;stroke-miterlimit:10;}
	.st6{fill:none;stroke:#AEECFF;stroke-width:20;stroke-miterlimit:10;}
</style>
<g id="Capa_3">
</g>
<g id="Capa_4">
	<polygon class="st0" points="790.1,364.04 362.16,366.92 572.96,986.19 595.44,979.28 	"/>
	<polygon class="st1" points="576.13,116.36 362.16,366.92 790.1,364.04 	"/>
	<polygon class="st1" points="558.72,965.96 59.95,366.92 362.16,358.28 	"/>
	<polygon class="st2" points="209.66,116.36 570.19,116.36 362.16,358.28 333.83,325.87 	"/>
	<polygon class="st2" points="936,104.84 796.53,366.92 576.13,107.72 	"/>
	<polygon class="st3" points="944.64,116.36 790.1,364.04 1095.6,366.92 	"/>
	<polygon class="st0" points="200.16,107.72 59.95,366.92 352.8,356.84 	"/>
	<polyline class="st4" points="794.88,369.8 1086.84,369.8 592.96,986.19 601.5,937.04 794.88,369.8 794.88,369.8 	"/>
</g>
<g id="Capa_2">
	<polygon class="st5" points="578.88,1003.4 1097.28,369.8 944.64,107.72 204.48,107.72 57.6,364.04 	"/>
	<line class="st6" x1="1097.28" y1="369.8" x2="57.6" y2="364.04"/>
	<polyline class="st6" points="204.48,107.72 360,366.92 578.88,1003.4 794.88,369.8 	"/>
	<polyline class="st6" points="944.64,107.72 794.88,369.8 577.44,107.72 360,366.92 	"/>
</g>
</svg>
